<svg width="38" height="26" viewBox="0 0 38 26" fill="none" xmlns="http://www.w3.org/2000/svg">
    <path d="M4.27321 22.9974C3.48652 22.9974 2.84881 22.3539 2.84881 21.5601V4.31207C2.84881 3.51824 3.48652 2.87474 4.27321 2.87474H32.7613C33.548 2.87474 34.1857 3.51824 34.1857 4.31207V21.5601C34.1857 22.3539 33.548 22.9974 32.7613 22.9974H4.27321ZM4.27321 25.8721H32.7613C35.1213 25.8721 37.0345 23.9416 37.0345 21.5601V4.31207C37.0345 1.93058 35.1213 7.05719e-05 32.7613 7.05719e-05H4.27321C1.91314 7.05719e-05 0 1.93058 0 4.31207V21.5601C0 23.9416 1.91314 25.8721 4.27321 25.8721Z" fill="black"/>
    <path d="M8.4244 17.248C7.63771 17.248 7 17.8915 7 18.6853C7 19.4792 7.63771 20.1227 8.4244 20.1227H14.122C14.9087 20.1227 15.5464 19.4792 15.5464 18.6853C15.5464 17.8915 14.9087 17.248 14.122 17.248H8.4244Z" fill="black"/>
</svg>
